HIERARCHY
ROOT Hips
{
	OFFSET 0.000000 0.000000 0.000000
	CHANNELS 6 Xposition Yposition Zposition Zrotation Yrotation Xrotation 
	JOINT LHipJoint
	{
		OFFSET 0.000000 0.000000 0.000000
		CHANNELS 3 Zrotation Yrotation Xrotation
		JOINT LeftUpLeg
		{
			OFFSET 1.363060 -1.794630 0.839290
			CHANNELS 3 Zrotation Yrotation Xrotation
			JOINT LeftLeg
			{
				OFFSET 2.448110 -6.726130 0.000000
				CHANNELS 3 Zrotation Yrotation Xrotation
				JOINT LeftFoot
				{
					OFFSET 2.562200 -7.039590 0.000000
					CHANNELS 3 Zrotation Yrotation Xrotation
					JOINT LeftToeBase
					{
						OFFSET 0.157640 -0.433110 2.322550
						CHANNELS 3 Zrotation Yrotation Xrotation
						End Site
						{
							OFFSET 0.000000 0.000000 0.000000
						}
					}
				}
			}
		}
	}
	JOINT RHipJoint
	{
		OFFSET 0.000000 0.000000 0.000000
		CHANNELS 3 Zrotation Yrotation Xrotation
		JOINT RightUpLeg
		{
			OFFSET -1.305520 -1.794630 0.839290
			CHANNELS 3 Zrotation Yrotation Xrotation
			JOINT RightLeg
			{
				OFFSET -2.542530 -6.985550 0.000000
				CHANNELS 3 Zrotation Yrotation Xrotation
				JOINT RightFoot
				{
					OFFSET -2.568260 -7.056230 0.000000
					CHANNELS 3 Zrotation Yrotation Xrotation
					JOINT RightToeBase
					{
						OFFSET -0.164730 -0.452590 2.363150
						CHANNELS 3 Zrotation Yrotation Xrotation
						End Site
						{
							OFFSET 0.000000 0.000000 0.000000
						}
					}
				}
			}
		}
	}
}
MOTION
Frames: 27
Frame Time: 0.008333
1.987314 16.819728 2.872618 -15.832177 -73.001897 28.286853 -10.459931 -1.158332 2.157680 -5.827244 -16.506453 -27.357561 -0.455584 1.146018 37.996078 3.048672 14.739083 -18.260337 -2.722000 0.000001 -27.639900 9.510223 0.333229 -1.890160 4.201158 -0.595362 -32.541924 -1.069589 -3.618227 56.562519 -4.477989 -26.984585 15.884606 -11.369300 -0.000000 -70.108200
2.006993 16.814629 2.887522 -16.305039 -72.582849 28.366505 -10.504017 -1.181179 2.146492 -5.641691 -16.679841 -27.041151 -0.438317 1.174478 38.243199 3.033191 14.703360 -18.354962 -2.748500 0.000000 -27.600700 9.522477 0.396316 -1.967080 4.408642 -0.695568 -33.551291 -1.151395 -3.739779 58.616758 -4.424017 -26.785634 17.038826 -11.646800 -0.000001 -69.329599
2.026356 16.810133 2.901564 -16.770076 -72.174205 28.433445 -10.549504 -1.197300 2.136007 -5.461250 -16.794226 -26.728575 -0.425494 1.201055 38.465980 3.008427 14.614788 -18.435867 -2.763000 -0.000000 -27.613400 9.539185 0.454347 -2.052481 4.624051 -0.877276 -34.619532 -1.235044 -3.872405 60.692891 -4.354329 -26.398904 17.795156 -11.671500 -0.000000 -68.346900
2.045555 16.806494 2.914982 -17.256043 -71.777048 28.512837 -10.598245 -1.207509 2.122974 -5.277245 -16.835573 -26.415314 -0.416790 1.225476 38.660384 2.973119 14.467050 -18.501444 -2.763800 -0.000000 -27.694300 9.558246 0.507355 -2.146124 4.858166 -1.129936 -35.738356 -1.324151 -4.015429 62.775109 -4.276152 -25.889836 18.157342 -11.485700 -0.000000 -67.584100
2.064837 16.803858 2.927904 -17.772180 -71.392934 28.610777 -10.650555 -1.212331 2.106200 -5.087146 -16.801295 -26.097684 -0.411874 1.247450 38.822019 2.927451 14.261297 -18.550209 -2.750600 0.000001 -27.843001 9.578807 0.556286 -2.249469 5.114426 -1.453423 -36.907163 -1.421579 -4.169322 64.860609 -4.192284 -25.295107 18.120287 -11.116899 -0.000000 -67.049000
2.084061 16.802331 2.940154 -18.278621 -71.024260 28.691127 -10.703394 -1.211100 2.086994 -4.903715 -16.708088 -25.768226 -0.410694 1.266522 38.942168 2.874007 14.012072 -18.576874 -2.724200 -0.000001 -28.075900 9.602717 0.603839 -2.367305 5.378156 -1.865357 -38.131530 -1.530083 -4.336521 66.959439 -4.099885 -24.607909 17.655965 -10.563300 0.000000 -66.376000
2.103559 16.802181 2.952398 -18.842805 -70.667640 28.816265 -10.761153 -1.206113 2.062765 -4.701585 -16.540242 -25.429335 -0.411623 1.282679 39.024478 2.811402 13.712244 -18.583597 -2.684000 0.000001 -28.376900 9.623865 0.649392 -2.493509 5.673724 -2.331439 -39.396876 -1.647495 -4.511235 69.032766 -4.007811 -23.919278 16.864752 -9.918100 -0.000000 -66.047500
2.123229 16.803364 2.964379 -19.411090 -70.324281 28.938880 -10.819597 -1.197110 2.036151 -4.497482 -16.326644 -25.075896 -0.414301 1.295676 39.062286 2.743559 13.384188 -18.563968 -2.632000 0.000000 -28.774500 9.643991 0.696929 -2.632250 5.978480 -2.868080 -40.710988 -1.773991 -4.695123 71.087225 -3.911225 -23.203258 15.752007 -9.178000 0.000000 -65.682100
2.143248 16.806039 2.976662 -20.033633 -69.991435 29.107642 -10.881873 -1.186092 2.006508 -4.270425 -16.060756 -24.713694 -0.417124 1.305570 39.061737 2.670303 13.026585 -18.522198 -2.569500 0.000000 -29.238400 9.658179 0.745708 -2.777074 6.309392 -3.444200 -42.067422 -1.906240 -4.883501 73.094742 -3.814281 -22.502917 14.415893 -8.403200 -0.000001 -65.464600
2.163603 16.810134 2.989258 -20.699825 -69.668118 29.316894 -10.946757 -1.173860 1.975537 -4.021434 -15.757771 -24.345248 -0.419162 1.312337 39.024565 2.593913 12.651962 -18.457852 -2.498499 0.000000 -29.770399 9.665334 0.797491 -2.925926 6.659705 -4.051358 -43.470221 -2.042165 -5.075028 75.046877 -3.715281 -21.808584 12.918654 -7.613000 -0.000000 -65.294700
2.184291 16.815624 3.002238 -21.412466 -69.353155 29.572730 -11.013952 -1.161609 1.944431 -3.746856 -15.427171 -23.976002 -0.419430 1.316022 38.955219 2.516092 12.269286 -18.373139 -2.421500 0.000000 -30.362200 9.663810 0.853239 -3.074858 7.027324 -4.673603 -44.923138 -2.179628 -5.267832 76.933880 -3.613161 -21.112390 11.332739 -6.829500 0.000000 -65.152100
2.205117 16.822386 3.015635 -22.170442 -69.045793 29.879985 -11.082994 -1.150143 1.914330 -3.444274 -15.077412 -23.611177 -0.417143 1.316680 38.858937 2.438283 11.885864 -18.270908 -2.340601 -0.000000 -31.011199 9.652506 0.913453 -3.219640 7.410032 -5.294763 -46.430273 -2.317104 -5.460414 78.749492 -3.506364 -20.400730 9.724897 -6.070300 0.000000 -65.023801
2.226069 16.830255 3.029337 -22.968575 -68.745602 30.236501 -11.153028 -1.140454 1.885670 -3.115132 -14.716527 -23.255133 -0.412043 1.314474 38.740919 2.361923 11.508318 -18.156957 -2.258400 -0.000001 -31.689701 9.630879 0.979051 -3.356942 7.802987 -5.901279 -47.995794 -2.453846 -5.651832 80.491463 -3.392972 -19.657118 8.152276 -5.348400 -0.000000 -64.925500
2.247099 16.839142 3.043370 -23.818188 -68.451755 30.654207 -11.224707 -1.133306 1.858209 -2.754125 -14.342917 -22.912437 -0.403775 1.309671 38.607820 2.287151 11.136455 -18.036506 -2.176200 -0.000000 -32.394400 9.598135 1.049157 -3.482658 8.209367 -6.476051 -49.620794 -2.589567 -5.840975 82.159093 -3.271295 -18.867707 6.656738 -4.673600 0.000000 -64.844500
2.267923 16.848803 3.057175 -24.675497 -68.163706 31.094606 -11.294514 -1.128446 1.832579 -2.378093 -13.974107 -22.580275 -0.392602 1.302393 38.458268 2.215846 10.781893 -17.905224 -2.095100 0.000000 -33.174400 9.556238 1.126414 -3.597046 8.610188 -7.021752 -51.307144 -2.725064 -6.028662 83.757843 -3.139155 -18.014982 5.267278 -4.050300 -0.000000 -64.857300
2.288508 16.859192 3.070937 -25.568642 -67.880183 31.583771 -11.364793 -1.126760 1.806820 -1.975682 -13.596887 -22.262389 -0.378897 1.293122 38.300692 2.146706 10.434278 -17.776481 -2.016399 0.000000 -33.964301 9.503894 1.208292 -3.697220 9.018123 -7.521693 -53.050367 -2.860548 -6.213753 85.289456 -2.996408 -17.097657 3.994794 -3.482100 -0.000000 -64.942000
2.308771 16.870172 3.084339 -26.475623 -67.600059 32.098544 -11.434009 -1.127830 1.780138 -1.556549 -13.215911 -21.953497 -0.363157 1.282126 38.133246 2.079943 10.095773 -17.647118 -1.939800 -0.000000 -34.803100 9.442568 1.295471 -3.784177 9.423886 -7.978839 -54.845011 -2.996777 -6.396804 86.759725 -2.842814 -16.113038 2.836056 -2.967600 0.000000 -65.113800
2.328704 16.881660 3.097411 -27.401972 -67.320248 32.642021 -11.503264 -1.131926 1.751389 -1.117404 -12.825953 -21.654093 -0.345994 1.269971 37.959735 2.014480 9.758785 -17.523206 -1.865400 0.000000 -35.657500 9.371804 1.386821 -3.858774 9.832608 -8.392293 -56.684229 -3.133815 -6.577489 88.171703 -2.680047 -15.071687 1.778307 -2.505000 -0.000000 -65.353200
2.348192 16.893552 3.109700 -28.307508 -67.037382 33.173098 -11.569880 -1.138212 1.720561 -0.673651 -12.439679 -21.355668 -0.327867 1.256841 37.773919 1.950780 9.428523 -17.394481 -1.791900 -0.000000 -36.621800 9.293475 1.484031 -3.924823 10.229398 -8.778275 -58.560662 -3.271995 -6.757089 89.529189 -2.510359 -13.986928 0.805322 -2.091700 -0.000000 -65.736200
2.367161 16.905876 3.121579 -29.213164 -66.747471 33.711271 -11.636525 -1.146626 1.687378 -0.214318 -12.045446 -21.061593 -0.309150 1.243145 37.580272 1.886996 9.092285 -17.268096 -1.718800 0.000000 -37.622700 9.206135 1.584314 -3.982195 10.628329 -9.134173 -60.466633 -3.410516 -6.934635 90.832534 -2.337975 -12.885700 -0.108833 -1.724700 -0.000000 -66.137399
2.385709 16.918571 3.133091 -30.109370 -66.446479 34.245285 -11.703276 -1.156943 1.652499 0.258665 -11.646747 -20.771635 -0.290061 1.229177 37.378263 1.822647 8.747632 -17.141476 -1.645300 0.000001 -38.670700 9.109448 1.687497 -4.033022 11.029037 -9.469514 -62.397024 -3.548571 -7.110191 92.081147 -2.167575 -11.797326 -0.984645 -1.401999 0.000000 -66.532100
2.403635 16.931607 3.144000 -30.962052 -66.129506 34.744164 -11.767990 -1.168442 1.617852 0.734431 -11.258611 -20.484041 -0.270676 1.214848 37.164509 1.758335 8.399415 -17.007161 -1.570800 -0.000000 -39.783500 9.004136 1.794754 -4.079421 11.420990 -9.799566 -64.349881 -3.685820 -7.284603 93.274298 -2.004161 -10.752617 -1.832253 -1.122600 0.000000 -66.923400
2.420980 16.944905 3.154334 -31.760783 -65.792343 35.199019 -11.830326 -1.180956 1.585273 1.210812 -10.888821 -20.202059 -0.250839 1.200157 36.939871 1.694192 8.048610 -16.863096 -1.495501 0.000000 -40.963500 8.889666 1.905953 -4.121674 11.802839 -10.131897 -66.325248 -3.821528 -7.457845 94.409151 -1.852880 -9.783929 -2.658348 -0.885300 -0.000000 -67.318600
2.437591 16.958446 3.164440 -32.513121 -65.432457 35.620989 -11.891382 -1.194361 1.556982 1.693512 -10.538802 -19.933041 -0.230186 1.185078 36.708497 1.629944 7.692765 -16.711361 -1.419300 -0.000000 -42.149400 8.764951 2.019477 -4.157626 12.180415 -10.464692 -68.324535 -3.954742 -7.629117 95.482770 -1.717999 -8.918218 -3.469064 -0.686700 0.000000 -67.598300
2.453450 16.972187 3.174277 -33.208649 -65.047571 36.002975 -11.950335 -1.208590 1.535132 2.179095 -10.219726 -19.681086 -0.208251 1.169498 36.472367 1.566474 7.337639 -16.549967 -1.343000 -0.000000 -43.324800 8.630052 2.135398 -4.185743 12.548738 -10.800598 -70.350830 -4.085149 -7.798286 96.492870 -1.602546 -8.174237 -4.258357 -0.523700 -0.000000 -67.749300
2.468375 16.985987 3.183382 -33.812365 -64.636631 36.314801 -12.003643 -1.223503 1.520904 2.652046 -9.954382 -19.442458 -0.184865 1.153150 36.229525 1.505933 6.997564 -16.375050 -1.268300 0.000000 -44.492500 8.486878 2.255632 -4.205988 12.888877 -11.148885 -72.406048 -4.213565 -7.966403 97.439435 -1.507763 -7.559072 -5.011021 -0.392000 -0.000000 -67.872400
2.482400 16.999835 3.192099 -34.350538 -64.201417 36.583538 -12.053197 -1.239520 1.515362 3.121637 -9.740393 -19.224037 -0.159306 1.136174 35.986016 1.448405 6.672855 -16.190756 -1.196100 -0.000000 -45.590700 8.335118 2.377999 -4.214236 13.207388 -11.496387 -74.490540 -4.339515 -8.131981 98.322344 -1.433244 -7.069862 -5.723603 -0.285800 0.000001 -67.866400
